<svg xmlns="http://www.w3.org/2000/svg" width="9.655" height="11.035" viewBox="0 0 9.655 11.035">
  <path id="Icon_awesome-calendar-alt" data-name="Icon awesome-calendar-alt" d="M0,10a1.035,1.035,0,0,0,1.034,1.034H8.621A1.035,1.035,0,0,0,9.655,10V4.138H0ZM6.9,5.776a.259.259,0,0,1,.259-.259h.862a.259.259,0,0,1,.259.259v.862a.259.259,0,0,1-.259.259H7.155A.259.259,0,0,1,6.9,6.638Zm0,2.759a.259.259,0,0,1,.259-.259h.862a.259.259,0,0,1,.259.259V9.4a.259.259,0,0,1-.259.259H7.155A.259.259,0,0,1,6.9,9.4ZM4.138,5.776A.259.259,0,0,1,4.4,5.517h.862a.259.259,0,0,1,.259.259v.862a.259.259,0,0,1-.259.259H4.4a.259.259,0,0,1-.259-.259Zm0,2.759A.259.259,0,0,1,4.4,8.276h.862a.259.259,0,0,1,.259.259V9.4a.259.259,0,0,1-.259.259H4.4A.259.259,0,0,1,4.138,9.4ZM1.379,5.776a.259.259,0,0,1,.259-.259H2.5a.259.259,0,0,1,.259.259v.862A.259.259,0,0,1,2.5,6.9H1.638a.259.259,0,0,1-.259-.259Zm0,2.759a.259.259,0,0,1,.259-.259H2.5a.259.259,0,0,1,.259.259V9.4a.259.259,0,0,1-.259.259H1.638A.259.259,0,0,1,1.379,9.4ZM8.621,1.379H7.586V.345A.346.346,0,0,0,7.241,0h-.69a.346.346,0,0,0-.345.345V1.379H3.448V.345A.346.346,0,0,0,3.1,0h-.69a.346.346,0,0,0-.345.345V1.379H1.034A1.035,1.035,0,0,0,0,2.414V3.448H9.655V2.414A1.035,1.035,0,0,0,8.621,1.379Z" fill="#007a5e"/>
</svg>
