<svg xmlns="http://www.w3.org/2000/svg" width="23.57" height="20.951" viewBox="0 0 23.57 20.951">
  <path id="Icon_awesome-shopping-cart" data-name="Icon awesome-shopping-cart" d="M21.611,12.33l1.934-8.511a.982.982,0,0,0-.958-1.2H6.515L6.14.785A.982.982,0,0,0,5.178,0H.982A.982.982,0,0,0,0,.982v.655a.982.982,0,0,0,.982.982h2.86L6.716,16.672a2.292,2.292,0,1,0,2.744.35h8.579a2.291,2.291,0,1,0,2.6-.426l.226-.993a.982.982,0,0,0-.958-1.2H8.925l-.268-1.309h12A.982.982,0,0,0,21.611,12.33Z" fill="#fff"/>
</svg>
