<svg xmlns="http://www.w3.org/2000/svg" width="31.594" height="24.568" viewBox="0 0 31.594 24.568">
  <path id="Icon_awesome-home" data-name="Icon awesome-home" d="M15.377,8.627,5.265,16.956v8.989a.878.878,0,0,0,.878.878l6.146-.016a.878.878,0,0,0,.873-.878V20.679a.878.878,0,0,1,.878-.878h3.51a.878.878,0,0,1,.878.878v5.246a.878.878,0,0,0,.878.88l6.144.017a.878.878,0,0,0,.878-.878V16.95L16.216,8.627A.669.669,0,0,0,15.377,8.627ZM31.35,14.288l-4.585-3.779v-7.6a.658.658,0,0,0-.658-.658H23.035a.658.658,0,0,0-.658.658V6.894l-4.91-4.04a2.633,2.633,0,0,0-3.346,0L.238,14.288a.658.658,0,0,0-.088.927l1.4,1.7A.658.658,0,0,0,2.476,17l12.9-10.626a.669.669,0,0,1,.839,0L29.118,17a.658.658,0,0,0,.927-.088l1.4-1.7a.658.658,0,0,0-.093-.929Z" transform="translate(0.001 -2.254)" fill="#fff"/>
</svg>
