<svg xmlns="http://www.w3.org/2000/svg" width="15.759" height="15.755" viewBox="0 0 15.759 15.755">
  <path id="Icon_awesome-instagram" data-name="Icon awesome-instagram" d="M7.879,4.957A4.039,4.039,0,1,0,11.918,9,4.033,4.033,0,0,0,7.879,4.957Zm0,6.666A2.626,2.626,0,1,1,10.5,9a2.631,2.631,0,0,1-2.626,2.626Zm5.147-6.831a.942.942,0,1,1-.942-.942A.94.94,0,0,1,13.025,4.792Zm2.675.956a4.663,4.663,0,0,0-1.273-3.3,4.693,4.693,0,0,0-3.3-1.273c-1.3-.074-5.2-.074-6.5,0a4.687,4.687,0,0,0-3.3,1.269,4.678,4.678,0,0,0-1.273,3.3c-.074,1.3-.074,5.2,0,6.5a4.663,4.663,0,0,0,1.273,3.3,4.7,4.7,0,0,0,3.3,1.273c1.3.074,5.2.074,6.5,0a4.663,4.663,0,0,0,3.3-1.273,4.693,4.693,0,0,0,1.273-3.3c.074-1.3.074-5.2,0-6.5Zm-1.68,7.893a2.659,2.659,0,0,1-1.5,1.5,17.364,17.364,0,0,1-4.644.316,17.5,17.5,0,0,1-4.644-.316,2.659,2.659,0,0,1-1.5-1.5A17.364,17.364,0,0,1,1.42,9a17.5,17.5,0,0,1,.316-4.644,2.659,2.659,0,0,1,1.5-1.5,17.364,17.364,0,0,1,4.644-.316,17.5,17.5,0,0,1,4.644.316,2.659,2.659,0,0,1,1.5,1.5A17.364,17.364,0,0,1,14.337,9C14.337,10.143,14.432,12.607,14.02,13.641Z" transform="translate(0.003 -1.119)" fill="#fff"/>
</svg>
