<svg xmlns="http://www.w3.org/2000/svg" width="61.526" height="61.526" viewBox="0 0 61.526 61.526">
  <g id="Group_334" data-name="Group 334" transform="translate(-75.211 55.789)">
    <circle id="Ellipse_4" data-name="Ellipse 4" cx="30.763" cy="30.763" r="30.763" transform="translate(75.211 -55.789)" fill="#fff"/>
    <circle id="Ellipse_5" data-name="Ellipse 5" cx="25.934" cy="25.934" r="25.934" transform="translate(80.04 -50.96)" fill="#00bc99"/>
    <g id="Group_4" data-name="Group 4" transform="translate(92.617 -40.817)">
      <path id="Path_3" data-name="Path 3" d="M162.663,60.618a13.831,13.831,0,0,0-13.318,11.474c-.305,1.556,1.22,2.96,3.2,2.96h20.236c1.981,0,3.507-1.4,3.2-2.96A13.831,13.831,0,0,0,162.663,60.618Z" transform="translate(-149.305 -45.502)" fill="#fff"/>
      <path id="Path_5" data-name="Path 5" d="M168.019,59.4a7.395,7.395,0,1,1-7.395-7.4A7.394,7.394,0,0,1,168.019,59.4Z" transform="translate(-147.267 -49.974)" fill="#fff"/>
    </g>
  </g>
</svg>
