<svg xmlns="http://www.w3.org/2000/svg" width="12.446" height="13.718" viewBox="0 0 12.446 13.718">
  <g id="Icon_feather-share-2" data-name="Icon feather-share-2" transform="translate(-4 -2.5)">
    <path id="Path_45" data-name="Path 45" d="M26.315,4.908A1.908,1.908,0,1,1,24.408,3,1.908,1.908,0,0,1,26.315,4.908Z" transform="translate(-10.369)" fill="none" stroke="#fff" stroke-linecap="round" stroke-linejoin="round" stroke-width="1"/>
    <path id="Path_46" data-name="Path 46" d="M8.315,15.408A1.908,1.908,0,1,1,6.408,13.5,1.908,1.908,0,0,1,8.315,15.408Z" transform="translate(0 -6.049)" fill="none" stroke="#fff" stroke-linecap="round" stroke-linejoin="round" stroke-width="1"/>
    <path id="Path_47" data-name="Path 47" d="M26.315,25.908A1.908,1.908,0,1,1,24.408,24,1.908,1.908,0,0,1,26.315,25.908Z" transform="translate(-10.369 -12.097)" fill="none" stroke="#fff" stroke-linecap="round" stroke-linejoin="round" stroke-width="1"/>
    <path id="Path_48" data-name="Path 48" d="M12.885,20.265,17.228,22.8" transform="translate(-4.83 -9.946)" fill="none" stroke="#fff" stroke-linecap="round" stroke-linejoin="round" stroke-width="1"/>
    <path id="Path_49" data-name="Path 49" d="M17.222,9.765,12.885,12.3" transform="translate(-4.83 -3.897)" fill="none" stroke="#fff" stroke-linecap="round" stroke-linejoin="round" stroke-width="1"/>
  </g>
</svg>
